<?xml version="1.0" standalone="no"?><svg xmlns="http://www.w3.org/2000/svg" viewBox="0 0 1440 320"><path fill="#ffffff" fill-opacity="1" d="M0,256L26.7,256C53.3,256,107,256,160,224C213.3,192,267,128,320,133.3C373.3,139,427,213,480,218.7C533.3,224,587,160,640,122.7C693.3,85,747,75,800,64C853.3,53,907,43,960,74.7C1013.3,107,1067,181,1120,208C1173.3,235,1227,213,1280,213.3C1333.3,213,1387,235,1413,245.3L1440,256L1440,320L1413.3,320C1386.7,320,1333,320,1280,320C1226.7,320,1173,320,1120,320C1066.7,320,1013,320,960,320C906.7,320,853,320,800,320C746.7,320,693,320,640,320C586.7,320,533,320,480,320C426.7,320,373,320,320,320C266.7,320,213,320,160,320C106.7,320,53,320,27,320L0,320Z"></path></svg>